# xmcd CD database file
#
# Track frame offsets:
#	150
#	26377
#	47892
#	72355
#	92717
#	111132
#	132810
#	155835
#	174690
#	194442
#	218565
#	239477
#
# Disc length: 3539 seconds
#
# Revision: 3
# Processed by: cddbd v1.5.1PL0 Copyright (c) Steve Scherf et al.
# Submitted via: CDex 1.51
#
DISCID=aa0dd10c
DTITLE=RED WARRIORS - RED SONGS  Disc2
DYEAR=1995
DGENRE=Rock
TTITLE0=WINE and ROSES #2 [バラとワイン #2]
TTITLE1=SUNDAY SUNSHINE
TTITLE2=JOHN
TTITLE3=BIRTHDAY SONG -Another Tape-
TTITLE4=MORNING AFTER
TTITLE5=RUSSIAN HILL NO UEDE [ルシアン・ヒルの上で]
TTITLE6=OUTSIDER
TTITLE7=PARTY IS OVER
TTITLE8=SISTER
TTITLE9=GOLDEN DAYS
TTITLE10=ANOTHER DAY, ANOTHER TIME
TTITLE11=LADY BLUE -Completed Take-
EXTD=YEAR: 1995
EXTT0=
EXTT1=
EXTT2=
EXTT3=
EXTT4=
EXTT5=
EXTT6=
EXTT7=
EXTT8=
EXTT9=
EXTT10=
EXTT11=
PLAYORDER=
